<svg width="295" height="54" viewBox="0 0 295 54" fill="none" xmlns="http://www.w3.org/2000/svg">
    <g clip-path="url(#clip0)">
        <path d="M68.5168 29.9602C67.8977 29.5327 67.205 29.1936 66.4238 28.9134C65.6427 28.6481 64.8615 28.3974 64.0656 28.1615C63.3729 27.9551 62.6802 27.7487 62.0169 27.5276C61.3389 27.3064 60.7641 27.0558 60.2483 26.7757C59.7471 26.4956 59.3345 26.1565 59.0249 25.7584C58.7154 25.3603 58.5533 24.8885 58.5533 24.343V24.2693C58.5533 23.2963 58.966 22.4706 59.7766 21.8219C60.5873 21.1585 61.6779 20.8341 63.0486 20.8341C64.1098 20.8341 65.1563 21.0111 66.2028 21.3796C67.2492 21.7482 68.222 22.22 69.121 22.8097L70.1233 21.2175C69.1358 20.5393 68.0304 19.9938 66.7776 19.5957C65.5248 19.1976 64.3015 19.006 63.1223 19.006C62.1643 19.006 61.2947 19.1387 60.4841 19.4188C59.6882 19.6842 58.9955 20.0675 58.4354 20.554C57.8606 21.0405 57.4184 21.6155 57.0942 22.279C56.7699 22.9424 56.6078 23.6648 56.6078 24.461V24.5347C56.6078 25.4046 56.8141 26.1417 57.2121 26.7314C57.61 27.3212 58.1406 27.8224 58.7744 28.2205C59.4229 28.6186 60.1451 28.9429 60.9557 29.2083C61.7664 29.4589 62.577 29.7096 63.3729 29.9455C64.0656 30.1519 64.7289 30.3583 65.3479 30.5647C65.9669 30.7711 66.527 31.0217 67.0134 31.3313C67.4998 31.6409 67.8977 31.9948 68.1778 32.4076C68.4578 32.8204 68.6052 33.3069 68.6052 33.8819V33.9556C68.6052 35.1204 68.1483 36.0344 67.2345 36.6979C66.3207 37.3613 65.1858 37.7004 63.8445 37.7004C62.577 37.7004 61.3537 37.4793 60.1598 37.0222C58.966 36.5652 57.8311 35.9312 56.7552 35.1056L55.635 36.6094C56.6962 37.4645 57.949 38.1575 59.3934 38.703C60.8378 39.2485 62.2822 39.5138 63.7266 39.5138C64.6847 39.5138 65.569 39.3811 66.3944 39.101C67.2197 38.8356 67.9419 38.4376 68.561 37.9363C69.18 37.435 69.6664 36.8306 70.0201 36.1229C70.3739 35.4152 70.536 34.6191 70.536 33.7492V33.6755C70.536 32.8057 70.3444 32.0685 69.9759 31.4788C69.6369 30.9038 69.1358 30.3878 68.5168 29.9602Z" fill="#04274C"/>
        <path d="M87.7951 21.2175C87.1172 20.4951 86.277 19.9348 85.2895 19.5368C84.302 19.1387 83.1966 18.9323 81.9586 18.9323C80.1457 18.9323 78.6865 19.3304 77.5369 20.1265C76.402 20.9226 75.5029 21.9104 74.825 23.0751V10.8677H72.9236V39.1453H74.825V27.7193C74.825 26.6872 75.0018 25.7437 75.3408 24.8738C75.6946 24.004 76.1662 23.2668 76.8 22.6476C77.419 22.0284 78.1412 21.5418 78.9666 21.188C79.7919 20.8342 80.691 20.672 81.6785 20.672C83.6977 20.672 85.2453 21.2912 86.3213 22.5149C87.4119 23.7386 87.9425 25.3751 87.9425 27.4097V39.1453H89.8438V27.0558C89.8438 25.8616 89.667 24.7706 89.328 23.7828C89.0037 22.795 88.4879 21.9399 87.7951 21.2175Z" fill="#04274C"/>
        <path d="M109.093 21.9841C108.194 21.0553 107.118 20.3182 105.894 19.7579C104.671 19.1977 103.315 18.9175 101.841 18.9175C100.367 18.9175 99.0114 19.1977 97.7734 19.7579C96.5353 20.3182 95.4594 21.0701 94.5455 22.0284C93.6317 22.9867 92.9243 24.0777 92.4084 25.3161C91.9073 26.5545 91.6567 27.8667 91.6567 29.2673V29.341C91.6567 30.7416 91.9073 32.0538 92.4084 33.2922C92.9095 34.5306 93.617 35.6216 94.5161 36.5505C95.4151 37.4793 96.4911 38.2165 97.7144 38.7767C98.9377 39.3369 100.294 39.6023 101.768 39.6023C103.241 39.6023 104.597 39.3222 105.836 38.7767C107.074 38.2165 108.149 37.4646 109.063 36.5062C109.977 35.5479 110.685 34.4569 111.2 33.2185C111.702 31.9801 111.952 30.6679 111.952 29.2673V29.1936C111.952 27.793 111.702 26.4808 111.2 25.2424C110.699 24.004 110.007 22.913 109.093 21.9841ZM109.948 29.341C109.948 30.5057 109.741 31.5967 109.343 32.614C108.945 33.646 108.385 34.5306 107.663 35.2973C106.956 36.0492 106.086 36.6537 105.099 37.1107C104.096 37.5678 103.02 37.7889 101.856 37.7889C100.721 37.7889 99.6452 37.5678 98.6429 37.1402C97.6407 36.6979 96.7711 36.0934 96.0342 35.3268C95.2972 34.5601 94.7224 33.646 94.3097 32.614C93.897 31.5672 93.6907 30.4615 93.6907 29.282V29.2083C93.6907 28.0584 93.897 26.9526 94.295 25.9353C94.6929 24.9033 95.253 24.0187 95.9752 23.2521C96.6827 22.5002 97.5375 21.8957 98.5398 21.4386C99.542 20.9816 100.618 20.7604 101.782 20.7604C102.917 20.7604 103.993 20.9816 104.995 21.4092C105.998 21.8514 106.867 22.4559 107.604 23.2226C108.341 23.9892 108.916 24.9033 109.343 25.9353C109.756 26.9821 109.962 28.0878 109.962 29.2673V29.341H109.948Z" fill="#04274C"/>
        <path d="M130.243 21.6303C129.344 20.7457 128.312 20.0823 127.163 19.6105C126.013 19.1387 124.849 18.9175 123.655 18.9175C122.667 18.9175 121.783 19.0502 120.958 19.3304C120.147 19.5957 119.41 19.9643 118.747 20.3919C118.083 20.8342 117.494 21.3502 116.949 21.9399C116.403 22.5296 115.932 23.1489 115.519 23.7976V19.3746H113.618V45.3374H115.519V34.8845C115.932 35.5037 116.403 36.0934 116.934 36.6684C117.464 37.2434 118.054 37.7447 118.717 38.187C119.38 38.6293 120.117 38.9684 120.943 39.2337C121.768 39.4844 122.667 39.6171 123.655 39.6171C124.849 39.6171 126.013 39.3812 127.163 38.8946C128.312 38.4229 129.344 37.7299 130.243 36.8453C131.142 35.9607 131.879 34.8697 132.424 33.5871C132.984 32.3044 133.264 30.8743 133.264 29.2673V29.1936C133.264 27.5866 132.984 26.1565 132.424 24.8738C131.879 23.5912 131.142 22.5149 130.243 21.6303ZM131.245 29.341C131.245 30.6532 131.039 31.8474 130.641 32.8794C130.243 33.9262 129.683 34.8108 128.99 35.5332C128.297 36.2556 127.472 36.8158 126.529 37.1992C125.586 37.5825 124.569 37.7742 123.478 37.7742C122.446 37.7742 121.444 37.5678 120.471 37.1549C119.498 36.7421 118.644 36.1671 117.892 35.43C117.14 34.6928 116.536 33.8082 116.079 32.7615C115.622 31.7147 115.401 30.5647 115.401 29.2968V29.2231C115.401 27.9552 115.622 26.8052 116.079 25.7732C116.536 24.7411 117.14 23.8565 117.892 23.1046C118.644 22.3527 119.498 21.7777 120.471 21.3649C121.444 20.9521 122.446 20.7457 123.478 20.7457C124.51 20.7457 125.497 20.9521 126.44 21.3502C127.384 21.7482 128.209 22.3232 128.931 23.0604C129.639 23.7976 130.214 24.6969 130.626 25.7584C131.039 26.8199 131.245 27.9994 131.245 29.282V29.341V29.341Z" fill="#04274C"/>
        <path d="M152.145 21.6303C151.246 20.7457 150.214 20.0823 149.065 19.6105C147.915 19.1387 146.751 18.9175 145.557 18.9175C144.569 18.9175 143.685 19.0502 142.859 19.3304C142.049 19.5957 141.312 19.9643 140.649 20.3919C139.985 20.8342 139.396 21.3502 138.851 21.9399C138.305 22.5296 137.834 23.1489 137.421 23.7976V19.3746H135.52V45.3374H137.421V34.8845C137.834 35.5037 138.305 36.0934 138.836 36.6684C139.366 37.2434 139.956 37.7447 140.619 38.187C141.282 38.6293 142.019 38.9684 142.845 39.2337C143.67 39.4844 144.569 39.6171 145.557 39.6171C146.751 39.6171 147.915 39.3812 149.065 38.8946C150.214 38.4229 151.246 37.7299 152.145 36.8453C153.044 35.9607 153.781 34.8697 154.326 33.5871C154.886 32.3044 155.166 30.8743 155.166 29.2673V29.1936C155.166 27.5866 154.886 26.1565 154.326 24.8738C153.766 23.5912 153.044 22.5149 152.145 21.6303ZM153.147 29.341C153.147 30.6532 152.941 31.8474 152.543 32.8794C152.145 33.9262 151.585 34.8108 150.892 35.5332C150.199 36.2556 149.374 36.8158 148.431 37.1992C147.487 37.5825 146.47 37.7742 145.38 37.7742C144.348 37.7742 143.346 37.5678 142.373 37.1549C141.4 36.7421 140.545 36.1671 139.794 35.43C139.042 34.6928 138.438 33.8082 137.981 32.7615C137.524 31.7147 137.303 30.5647 137.303 29.2968V29.2231C137.303 27.9552 137.524 26.8052 137.981 25.7732C138.438 24.7411 139.042 23.8565 139.794 23.1046C140.545 22.3527 141.4 21.7777 142.373 21.3649C143.346 20.9521 144.348 20.7457 145.38 20.7457C146.412 20.7457 147.399 20.9521 148.342 21.3502C149.286 21.7482 150.111 22.3232 150.833 23.0604C151.541 23.7976 152.115 24.6969 152.528 25.7584C152.941 26.8199 153.147 27.9994 153.147 29.282V29.341Z" fill="#04274C"/>
        <path d="M159.588 19.3893H157.687V39.1453H159.588V19.3893Z" fill="#04274C"/>
        <path d="M159.824 11.6344H157.466V14.2292H159.824V11.6344Z" fill="#04274C"/>
        <path d="M177.201 21.2175C176.523 20.4951 175.683 19.9348 174.695 19.5368C173.708 19.1387 172.602 18.9323 171.364 18.9323C169.552 18.9323 168.092 19.3304 166.943 20.1265C165.808 20.9226 164.909 21.9104 164.231 23.0751V19.3893H162.329V39.1453H164.231V27.7193C164.231 26.6872 164.408 25.7437 164.747 24.8738C165.1 24.004 165.587 23.2668 166.206 22.6476C166.825 22.0284 167.547 21.5418 168.372 21.188C169.198 20.8342 170.097 20.672 171.084 20.672C173.104 20.672 174.651 21.2912 175.727 22.5149C176.818 23.7386 177.348 25.3751 177.348 27.4096V39.1453H179.25V27.0558C179.25 25.8616 179.073 24.7706 178.734 23.7828C178.41 22.795 177.894 21.9399 177.201 21.2175Z" fill="#04274C"/>
        <path d="M230.349 21.9104C229.568 20.9816 228.61 20.2444 227.505 19.7284C226.399 19.1977 225.146 18.9323 223.746 18.9323C222.405 18.9323 221.167 19.1977 220.032 19.7432C218.897 20.2887 217.91 21.0258 217.07 21.9546C216.229 22.8835 215.566 23.9745 215.095 25.2276C214.623 26.4808 214.372 27.8225 214.372 29.2378V29.3115C214.372 30.8596 214.638 32.2749 215.153 33.5281C215.669 34.796 216.377 35.8723 217.276 36.7864C218.175 37.6857 219.207 38.3934 220.386 38.8799C221.565 39.3664 222.803 39.6171 224.1 39.6171C225.987 39.6171 227.578 39.2632 228.861 38.5555C230.143 37.8479 231.292 36.9485 232.295 35.8575L230.983 34.6928C230.158 35.5774 229.2 36.2998 228.124 36.9043C227.048 37.494 225.736 37.7889 224.188 37.7889C223.201 37.7889 222.272 37.612 221.373 37.2729C220.474 36.919 219.678 36.4178 218.986 35.7543C218.293 35.0909 217.703 34.28 217.232 33.3217C216.76 32.3781 216.495 31.2724 216.421 30.0487H232.811C232.84 29.8865 232.855 29.7686 232.855 29.6801C232.855 29.5916 232.855 29.459 232.855 29.2673C232.855 27.793 232.648 26.4366 232.221 25.1834C231.749 23.9302 231.145 22.8392 230.349 21.9104ZM216.392 28.3385C216.465 27.2475 216.716 26.2449 217.128 25.3014C217.541 24.3578 218.072 23.5469 218.706 22.854C219.339 22.1758 220.091 21.6303 220.946 21.247C221.801 20.8636 222.714 20.672 223.702 20.672C224.837 20.672 225.839 20.8784 226.694 21.3059C227.549 21.7335 228.271 22.2937 228.846 23.0162C229.421 23.7238 229.878 24.5347 230.202 25.4635C230.526 26.3776 230.732 27.3359 230.806 28.3532H216.392V28.3385Z" fill="#04274C"/>
        <path d="M250.35 21.9104C249.569 20.9816 248.611 20.2444 247.505 19.7284C246.4 19.1977 245.147 18.9323 243.747 18.9323C242.406 18.9323 241.168 19.1977 240.033 19.7432C238.898 20.2887 237.91 21.0258 237.07 21.9546C236.23 22.8835 235.567 23.9745 235.095 25.2276C234.623 26.4808 234.373 27.8225 234.373 29.2378V29.3115C234.373 30.8596 234.638 32.2749 235.154 33.5281C235.67 34.796 236.377 35.8723 237.276 36.7864C238.176 37.6857 239.207 38.3934 240.386 38.8799C241.565 39.3664 242.804 39.6171 244.101 39.6171C245.987 39.6171 247.579 39.2632 248.861 38.5555C250.143 37.8479 251.293 36.9485 252.295 35.8575L250.984 34.6928C250.158 35.5774 249.2 36.2998 248.124 36.9043C247.048 37.494 245.737 37.7889 244.189 37.7889C243.201 37.7889 242.273 37.612 241.374 37.2729C240.475 36.919 239.679 36.4178 238.986 35.7543C238.293 35.0909 237.704 34.28 237.232 33.3217C236.761 32.3781 236.495 31.2724 236.422 30.0487H252.811C252.841 29.8865 252.855 29.7686 252.855 29.6801C252.855 29.5916 252.855 29.459 252.855 29.2673C252.855 27.793 252.649 26.4366 252.222 25.1834C251.75 23.9302 251.146 22.8392 250.35 21.9104ZM236.392 28.3385C236.466 27.2475 236.716 26.2449 237.129 25.3014C237.542 24.3578 238.072 23.5469 238.706 22.854C239.34 22.1758 240.092 21.6303 240.946 21.247C241.801 20.8636 242.715 20.672 243.703 20.672C244.838 20.672 245.84 20.8784 246.695 21.3059C247.549 21.7335 248.272 22.2937 248.846 23.0162C249.421 23.7238 249.878 24.5347 250.202 25.4635C250.527 26.3776 250.733 27.3359 250.807 28.3532H236.392V28.3385Z" fill="#04274C"/>
        <path d="M272.193 10.8677V23.6501C271.78 23.0309 271.308 22.4412 270.778 21.8662C270.247 21.306 269.658 20.7899 268.994 20.3624C268.331 19.9201 267.594 19.581 266.769 19.3156C265.943 19.065 265.044 18.9323 264.057 18.9323C262.863 18.9323 261.699 19.1682 260.549 19.6547C259.399 20.1265 258.368 20.8194 257.469 21.704C256.57 22.5886 255.833 23.6796 255.287 24.9623C254.727 26.2449 254.462 27.675 254.462 29.2821V29.3558C254.462 30.9628 254.742 32.3929 255.287 33.6755C255.847 34.9582 256.57 36.0345 257.469 36.9043C258.368 37.7889 259.399 38.4524 260.549 38.9241C261.699 39.3959 262.863 39.6171 264.057 39.6171C265.044 39.6171 265.929 39.4844 266.754 39.2043C267.565 38.9389 268.302 38.585 268.965 38.1427C269.628 37.7004 270.218 37.1844 270.748 36.5947C271.279 36.005 271.765 35.3858 272.207 34.7371V39.16H274.109V10.8677H272.193ZM272.311 29.3115C272.311 30.5795 272.09 31.7294 271.633 32.7615C271.176 33.7935 270.571 34.6928 269.834 35.43C269.083 36.1819 268.228 36.7569 267.255 37.1697C266.282 37.5825 265.28 37.7889 264.248 37.7889C263.217 37.7889 262.229 37.5825 261.271 37.1844C260.328 36.7864 259.503 36.2114 258.78 35.4742C258.073 34.7371 257.498 33.8377 257.085 32.7762C256.673 31.7147 256.466 30.5352 256.466 29.2526V29.1788C256.466 27.8667 256.673 26.6872 257.071 25.6405C257.469 24.5937 258.029 23.7091 258.721 22.9867C259.414 22.2643 260.24 21.704 261.183 21.3207C262.126 20.9374 263.143 20.7457 264.234 20.7457C265.265 20.7457 266.268 20.9521 267.24 21.3649C268.213 21.7777 269.068 22.3527 269.82 23.0899C270.571 23.827 271.176 24.7116 271.618 25.7584C272.075 26.8052 272.296 27.9552 272.296 29.2231V29.3115H272.311Z" fill="#04274C"/>
        <path d="M215.669 20.2592L214.8 19.3893H207.917V17.4874C207.917 14.1555 209.243 12.4895 211.911 12.4895C212.427 12.4895 212.898 12.5337 213.341 12.6074C213.783 12.6811 214.284 12.8138 214.844 12.9907V11.2068C214.402 11.0446 213.96 10.9414 213.488 10.853C213.016 10.7792 212.501 10.735 211.896 10.735C210.172 10.735 208.786 11.251 207.755 12.2831C206.59 13.4478 206.015 15.158 206.015 17.4432V19.3746H203.215H200.046H198.897V23.3258C198.484 22.7508 198.012 22.2053 197.467 21.6598C196.922 21.1143 196.317 20.6425 195.639 20.2444C194.961 19.8463 194.21 19.522 193.37 19.2714C192.529 19.0207 191.616 18.9028 190.643 18.9028C189.449 18.9028 188.299 19.1239 187.15 19.5662C186.015 20.0085 184.998 20.6277 184.114 21.4386C183.229 22.2495 182.507 23.2373 181.962 24.402C181.416 25.5667 181.151 26.8494 181.151 28.2795V28.3532C181.151 29.7686 181.416 31.0512 181.962 32.1864C182.507 33.3217 183.214 34.2947 184.114 35.1056C184.998 35.9165 186.015 36.5504 187.15 36.978C188.285 37.4203 189.449 37.6414 190.643 37.6414C191.63 37.6414 192.529 37.5235 193.355 37.2729C194.18 37.0222 194.932 36.6979 195.595 36.2703C196.273 35.8428 196.877 35.3562 197.408 34.8107C197.953 34.2652 198.44 33.6903 198.882 33.071V35.9312C198.882 37.1991 198.69 38.3049 198.292 39.2485C197.909 40.192 197.364 40.9882 196.686 41.6369C195.993 42.2708 195.182 42.7574 194.239 43.0817C193.296 43.4061 192.249 43.5682 191.114 43.5682C188.196 43.5682 185.528 42.6394 183.111 40.7818L181.991 42.3298C184.703 44.3644 187.739 45.3964 191.07 45.3964C192.544 45.3964 193.9 45.1752 195.123 44.7182C196.347 44.2612 197.393 43.6125 198.248 42.7574C199.044 41.9612 199.678 41.0029 200.105 39.8972C200.547 38.7914 200.768 37.5088 200.768 36.0639V21.129H203.127V21.1438H205.986V39.16H207.887V21.129H214.785V21.1143L215.669 20.2592ZM199.014 28.3385C199.014 29.4737 198.779 30.5057 198.322 31.4198C197.85 32.3339 197.246 33.13 196.479 33.7787C195.713 34.4422 194.843 34.9434 193.856 35.312C192.868 35.6806 191.866 35.8575 190.834 35.8575C189.832 35.8575 188.859 35.6659 187.916 35.2973C186.988 34.9287 186.162 34.4127 185.469 33.7492C184.777 33.0858 184.217 32.2896 183.804 31.3608C183.391 30.432 183.185 29.4147 183.185 28.2942V28.2205C183.185 27.0558 183.391 26.0238 183.789 25.0949C184.187 24.1809 184.747 23.3995 185.44 22.7508C186.133 22.1021 186.958 21.6008 187.887 21.2617C188.815 20.9079 189.803 20.7457 190.834 20.7457C191.866 20.7457 192.883 20.9226 193.856 21.2617C194.843 21.6155 195.713 22.1168 196.479 22.7655C197.246 23.429 197.865 24.2251 198.322 25.1539C198.793 26.0827 199.014 27.1148 199.014 28.25V28.3385Z" fill="#04274C"/>
        <path d="M42.9315 43.9467C52.3077 34.5677 52.3077 19.3613 42.9315 9.98223C33.5553 0.6032 18.3534 0.6032 8.97716 9.98223C-0.399065 19.3613 -0.399065 34.5677 8.97716 43.9467C18.3534 53.3258 33.5553 53.3258 42.9315 43.9467Z" fill="#04274C"/>
        <path d="M25.9657 43.9958C22.9442 43.9958 20.1144 42.5215 18.4047 40.0594C17.4761 38.7177 16.916 37.1402 16.7981 35.489L16.7834 35.1941L27.8817 27.4981L22.4726 27.4834L18.1836 30.4468L17.4466 30.2993L17.5793 29.5917L21.2787 27.0411L20.6892 26.6283C19.7754 25.9943 18.9942 25.2277 18.3752 24.3283C15.5011 20.1707 16.5328 14.4356 20.6892 11.5607C22.222 10.4991 24.0202 9.9389 25.9067 9.9389C26.29 9.9389 26.6289 9.96839 26.9827 10.0126L27.1153 10.0274C27.4248 10.0716 27.7196 10.1306 28.0144 10.1895L28.1618 10.219C28.486 10.3075 28.7956 10.3959 29.1198 10.5139C29.4883 10.6466 29.8273 10.794 30.1221 10.9562C30.4463 11.1331 30.7116 11.2953 30.9769 11.4575L31.2127 11.6196C31.4043 11.7671 31.6107 11.9145 31.7875 12.0619C31.876 12.1356 31.9644 12.2094 32.0381 12.2831C32.215 12.4453 32.3918 12.6222 32.554 12.7991L32.775 13.035C33.0256 13.3299 33.2467 13.5952 33.4236 13.8606C34.3521 15.2022 34.9122 16.7798 35.0301 18.431L35.0448 18.7259L23.9465 26.4219L29.223 26.4366L33.5857 23.4142L34.3226 23.5617L34.19 24.2693L30.4758 26.8347L31.0653 27.2327C32.0086 27.8667 32.8045 28.6628 33.4383 29.5769C34.8385 31.582 35.3543 34.0294 34.9269 36.4473C34.4847 38.8652 33.1435 40.9587 31.1243 42.3593C30.8885 42.5215 30.6527 42.6689 30.4021 42.8016L30.2105 42.9048C29.9894 43.0228 29.8125 43.1112 29.6357 43.1849L29.3704 43.3029C29.1935 43.3766 29.0019 43.4503 28.8103 43.5093L28.5892 43.583C28.3534 43.6567 28.1176 43.7157 27.867 43.7747C27.7786 43.7894 27.7049 43.8041 27.6164 43.8189L27.5133 43.8336C27.3806 43.8631 27.2332 43.8779 27.1006 43.8926C26.9679 43.9073 26.8353 43.9221 26.7026 43.9368C26.57 43.9516 26.4521 43.9516 26.3194 43.9663H26.231C26.1278 43.9663 26.0247 43.9811 25.9215 43.9811H25.9657V43.9958ZM17.8888 35.7101L17.933 36.005C18.1099 37.2434 18.5815 38.4376 19.289 39.4549C20.8071 41.6369 23.3127 42.949 25.9804 42.949C26.0836 42.949 26.1573 42.949 26.2457 42.9343H26.3342C26.4521 42.9343 26.5847 42.9196 26.7026 42.9048C26.8206 42.8901 26.9237 42.8753 27.0416 42.8606C27.1743 42.8458 27.2922 42.8163 27.4248 42.8016C27.4248 42.8016 27.6607 42.7574 27.7344 42.7426C27.9554 42.6984 28.1618 42.6394 28.3829 42.5805L28.5008 42.5362C28.7219 42.4625 28.8987 42.4035 29.0609 42.3298L29.2525 42.2561C29.4588 42.1676 29.6062 42.0939 29.7536 42.0055L29.9599 41.8875C30.1663 41.7696 30.3874 41.6369 30.5937 41.4895C34.2784 38.9389 35.1922 33.8672 32.6424 30.1814C31.9349 29.1641 30.9916 28.309 29.8862 27.7045L29.6209 27.5571L17.8888 35.7101ZM25.9215 10.9709C24.256 10.9709 22.6642 11.4722 21.3082 12.4158C19.5248 13.6542 18.331 15.5119 17.9478 17.6496C17.5646 19.7874 18.0215 21.9547 19.2595 23.7238C19.967 24.7411 20.9103 25.5962 22.0157 26.2007L22.281 26.3481L34.0131 18.2099L33.9689 17.9003C33.792 16.6618 33.3204 15.4676 32.6129 14.4503C32.4361 14.185 32.2297 13.9491 32.0381 13.7132C31.9939 13.6689 31.8465 13.5068 31.8465 13.5068C31.6991 13.3446 31.537 13.1972 31.3896 13.0497C31.3159 12.976 31.2422 12.917 31.1685 12.8581C31.0064 12.7106 30.8295 12.5927 30.6527 12.46L30.4463 12.3126C30.2105 12.1504 29.9747 12.0177 29.7241 11.885C29.3998 11.7228 29.1051 11.5901 28.8103 11.4722C28.5303 11.369 28.2355 11.2805 27.9407 11.2068L27.8081 11.1921C27.5428 11.1331 27.2775 11.0741 27.0122 11.0446L26.8942 11.0299C26.5995 11.0004 26.29 10.9709 25.9952 10.9709H25.9215Z" fill="white"/>
    </g>
    <defs>
        <clipPath id="clip0">
            <rect y="0.464478" width="295" height="53" fill="white"/>
        </clipPath>
    </defs>
</svg>
