<?xml version="1.0" encoding="UTF-8"?>
<svg width="73px" height="62px" viewBox="0 0 73 62" version="1.1" xmlns="http://www.w3.org/2000/svg" xmlns:xlink="http://www.w3.org/1999/xlink">
    <title>SF-Diamant@1x</title>
    <g id="DEF" stroke="none" stroke-width="1" fill="none" fill-rule="evenodd" opacity="0.5">
        <g id="Acceuil-SF" transform="translate(-1145.000000, -781.000000)" fill="#FFFFFF" fill-rule="nonzero">
            <g id="SF-Diamant" transform="translate(1145.000000, 781.000000)">
                <g id="Group" opacity="0.2" transform="translate(0.500000, 0.000000)">
                    <g id="Shape">
                        <path d="M71.4375,32.7103448 L66.375,15.6068966 C66.0375,14.3241379 64.9125,13.2551724 63.5625,12.8275862 L20.7,0.213793103 C19.35,-0.213793103 17.775,0.106896552 16.7625,0.962068966 L2.25,12.2931034 C0.7875,13.4689655 0.3375,15.3931034 1.125,17.1034483 L21.375,59.5413793 C21.825,60.6103448 22.8375,61.3586207 23.9625,61.6793103 C23.9625,61.6793103 23.9625,61.6793103 23.9625,61.6793103 C25.0875,62 26.4375,61.8931034 27.45,61.2517241 L69.4125,37.2 C71.1,36.3448276 71.8875,34.4206897 71.4375,32.7103448 Z M60.4125,15.6068966 L48.375,25.2275862 L44.1,10.6896552 L60.4125,15.6068966 Z M44.6625,25.5482759 L28.4625,20.737931 L40.5,11.3310345 L44.6625,25.5482759 Z M37.8,8.87241379 L25.7625,18.3862069 L21.6,4.06206897 L37.8,8.87241379 Z M17.8875,4.48965517 L22.1625,18.9206897 L5.7375,14.1103448 L17.8875,4.48965517 Z M5.4,17.637931 L22.95,22.7689655 L22.8375,54.0896552 L5.4,17.637931 Z M26.55,54.0896552 L26.6625,23.837931 L44.55,29.0758621 L26.55,54.0896552 Z M29.475,56.1206897 L48.15,30.2517241 L65.7,35.3827586 L29.475,56.1206897 Z M51.075,27.4724138 L63.225,17.8517241 L67.5,32.2827586 L51.075,27.4724138 Z"></path>
                    </g>
                </g>
                <path d="M58.007518,26.0391061 L51.0985235,16.1675978 C50.522774,15.424581 49.6015747,15 48.6803755,15 L18.2808001,15 C17.2444509,15 16.4384015,15.424581 15.862652,16.1675978 L8.9536576,26.0391061 C8.26275815,26.9944134 8.37790806,28.3743017 9.18395741,29.2234637 L31.2927395,52.150838 C31.8684891,52.6815642 32.6745384,53 33.4805878,53 C33.4805878,53 33.4805878,53 33.4805878,53 C34.2866371,53 35.0926865,52.6815642 35.668436,52.150838 L57.7772181,29.2234637 C58.6984174,28.2681564 58.6984174,26.9944134 58.007518,26.0391061 Z M47.2985766,17.2290503 L41.5410813,25.5083799 L35.7835859,17.2290503 L47.2985766,17.2290503 Z M39.2380831,26.4636872 L27.7230924,26.4636872 L33.4805878,18.2905028 L39.2380831,26.4636872 Z M31.1775896,17.2290503 L25.4200943,25.5083799 L19.6625989,17.2290503 L31.1775896,17.2290503 Z M17.3596008,18.1843575 L23.2322461,26.4636872 L11.4869555,26.4636872 L17.3596008,18.1843575 Z M12.0627051,28.7988827 L24.498895,28.7988827 L31.0624397,48.5418994 L12.0627051,28.7988827 Z M33.4805878,47.7988827 L27.032193,28.7988827 L39.8138327,28.7988827 L33.4805878,47.7988827 Z M35.7835859,48.5418994 L42.4622805,28.7988827 L54.8984705,28.7988827 L35.7835859,48.5418994 Z M43.7289295,26.4636872 L49.6015747,18.1843575 L55.47422,26.4636872 L43.7289295,26.4636872 Z" id="Shape"></path>
            </g>
        </g>
    </g>
</svg>