<?xml version="1.0" encoding="UTF-8"?>
<svg width="123px" height="109px" viewBox="0 0 123 109" version="1.1" xmlns="http://www.w3.org/2000/svg" xmlns:xlink="http://www.w3.org/1999/xlink">
    <title>SF-FluidFeed2-1 Copy@1x</title>
    <g id="DEF" stroke="none" stroke-width="1" fill="none" fill-rule="evenodd">
        <g id="Acceuil-SF" transform="translate(-1017.000000, -83.000000)" fill="#FFFFFF" fill-rule="nonzero">
            <g id="SF-FluidFeed2-1-Copy" transform="translate(1017.000000, 83.000000)">
                <g id="Group" opacity="0.2">
                    <path d="M120.59171,22.3057805 C124.705267,32.8926272 123.505479,44.8679128 117.335144,54.2398754 C113.90718,59.4465213 109.279428,63.4382831 103.794686,66.215161 L102.766297,66.7358255 L60.7737364,38.4463828 L68.1438592,57.3638629 L84.2552905,68.2978193 L84.7694851,71.0746971 L82.198512,71.5953617 L68.3152574,62.2233991 L67.6296646,64.826722 C66.7726736,68.9920388 65.0586915,72.8102458 62.8305149,76.1077882 C52.3752244,92.0748356 31.121847,96.4137072 15.3532121,85.8268605 C9.52567312,82.0086535 5.06931979,76.4548979 2.49834672,69.8598131 C1.9841521,68.4713742 1.64135569,67.2564901 1.29855928,66.0416061 L1.29855928,65.5209415 C0.955762872,64.3060575 0.784364667,63.2647283 0.612966462,62.0498442 L0.441568257,61.5291796 C0.270170052,60.3142956 0.098771847,59.0994116 0.098771847,57.7109727 C0.098771847,56.1489789 0.098771847,54.9340948 0.270170052,53.5456559 C0.441568257,52.157217 0.612966462,50.942333 0.784364667,49.9010038 L0.955762872,48.8596746 C1.12716108,47.9919003 1.46995749,47.124126 1.64135569,46.2563517 C1.8127539,45.909242 1.9841521,45.3885774 1.9841521,45.0414676 C2.32694851,44.1736933 2.66974492,43.305919 3.01254133,42.4381447 L3.52673595,41.3968155 C4.21232877,40.1819315 4.89792159,38.9670474 5.58351441,37.9257182 C9.01147851,32.7190723 13.63923,28.7273105 19.1239726,25.9504327 L20.1523618,25.4297681 L62.1449221,53.7192108 L55.2889939,35.1488404 L38.8347662,24.0413292 L38.3205716,21.2644514 L40.8915446,20.7437868 L54.9461974,30.1157494 L55.4603921,27.5124264 C56.3173831,23.3471097 58.0313651,19.3553479 60.2595418,15.8842506 C65.401488,8.24783662 73.1144072,3.04119072 82.0271138,1.13208723 C90.9398205,-0.777016269 100.023925,1.13208723 107.736845,6.16517826 C108.593836,6.68584285 109.450827,7.38006231 110.307818,8.07428176 L110.822012,8.59494635 C111.507605,9.2891658 112.0218,9.63627553 112.535994,10.1569401 L113.392985,10.8511596 C113.90718,11.3718242 114.421375,11.8924888 114.935569,12.5867082 L115.449764,13.2809277 C115.963958,13.9751471 116.649551,14.8429214 117.163746,15.5371409 C117.335144,15.8842506 117.506542,16.0578055 117.67794,16.4049152 L117.849339,16.7520249 C118.192135,17.2726895 118.363533,17.6197992 118.70633,18.1404638 C118.877728,18.6611284 119.220524,19.0082381 119.391923,19.5289027 C119.563321,19.8760125 119.734719,20.3966771 120.077515,20.9173416 L120.248914,21.2644514 C120.248914,21.4380062 120.420312,21.785116 120.59171,22.3057805 L120.59171,22.3057805 Z M102.937695,62.2233991 L103.966084,61.7027345 C108.079641,59.2729664 111.507605,55.975424 114.078578,52.157217 C119.563321,43.8265836 120.59171,33.2397369 116.992348,23.8677743 C116.820949,23.5206646 116.649551,23.1735549 116.649551,23 L116.478153,22.6528903 C116.306755,22.3057805 116.135357,21.785116 115.963958,21.4380062 C115.79256,21.0908965 115.621162,20.7437868 115.449764,20.2231222 C115.278366,19.8760125 114.935569,19.3553479 114.764171,19.0082381 C114.764171,19.0082381 114.249976,18.3140187 114.078578,17.966909 C113.564384,17.2726895 113.050189,16.5784701 112.535994,15.8842506 L112.193198,15.5371409 C111.679003,14.8429214 111.164809,14.3222568 110.650614,13.8015922 L110.136419,13.2809277 C109.450827,12.5867082 108.936632,12.2395985 108.422437,11.7189339 L107.736845,11.1982693 C107.051252,10.6776047 106.365659,9.98338525 105.508668,9.46272066 C91.6254133,0.0907580478 72.7716108,3.90896504 63.5161077,17.966909 C60.9451346,21.785116 59.2311526,26.2975424 58.716958,30.9835237 L58.716958,32.3719626 L102.937695,62.2233991 Z M6.26910723,68.2978193 C8.49728389,74.1986847 12.4394426,79.0582208 17.5813888,82.5293181 C24.2659188,87.0417445 32.3216344,88.6037383 40.37735,87.0417445 C48.2616675,85.4797508 55.1175957,80.7937695 59.573949,74.0251298 C62.1449221,70.2069228 63.8589041,65.5209415 64.3730987,61.0085151 L64.5444969,59.793631 L20.1523618,29.9421945 L19.2953708,30.4628591 C15.3532121,32.8926272 11.7538498,36.1901696 9.18287671,40.0083766 C8.49728389,41.0497058 7.98308928,42.091035 7.46889466,43.1323641 C7.29749646,43.305919 6.95470005,44.1736933 6.95470005,44.1736933 C6.61190364,44.8679128 6.26910723,45.7356871 5.92631082,46.4299065 C5.75491261,46.7770163 5.75491261,47.124126 5.58351441,47.4712357 C5.4121162,48.33901 5.06931979,49.0332295 4.89792159,49.9010038 L4.72652338,50.7687781 C4.55512518,51.8101073 4.38372697,52.8514365 4.21232877,53.8927657 C4.04093056,55.2812046 4.04093056,56.4960886 4.04093056,57.7109727 C4.04093056,58.9258567 4.21232877,59.9671859 4.38372697,61.1820699 L4.38372697,61.7027345 C4.55512518,62.7440637 4.72652338,63.7853929 4.89792159,64.6531672 L5.06931979,65.0002769 C5.4121162,66.0416061 5.75491261,67.2564901 6.09770902,68.2978193 L6.26910723,68.2978193 L6.26910723,68.2978193 Z" id="Shape"></path>
                </g>
                <path d="M62.82906,8 C71.6977506,8 80.054786,12.2942177 85.0007865,19.6802721 C87.7296144,23.6309524 89.4351319,28.2687075 89.7762353,33.25 L89.7762353,34.1088435 L57.2008525,56.9540816 L73.0621645,56.9540816 L85.6829935,48.1938776 L87.9001662,48.7091837 L87.5590627,50.7704082 L76.6437511,58.3282313 L78.3492686,59.5306122 C81.0780965,61.420068 83.2952691,63.6530612 85.1713383,66.4013605 C93.6989254,78.7687075 90.6289941,95.7738095 78.3492686,104.190476 C73.9149233,107.282313 68.4572675,109 62.9996117,109 C61.8057495,109 60.9529908,109 59.7591286,108.828231 L59.4180251,108.828231 C58.5652664,108.656463 57.541956,108.484694 56.6891972,108.312925 L56.177542,108.141156 C55.1542316,107.969388 54.3014728,107.62585 53.4487141,107.282313 C52.4254037,106.938776 51.4020932,106.423469 50.5493345,105.908163 C49.526024,105.392857 48.8438171,104.877551 47.9910584,104.362245 L47.3088514,103.846939 C46.7971962,103.503401 46.1149892,102.988095 45.603334,102.472789 C45.2622305,102.30102 45.0916787,101.957483 44.921127,101.785714 C44.4094718,101.270408 43.8978165,100.755102 43.3861613,100.239796 L42.7039543,99.5527211 C42.0217474,98.6938776 41.3395404,97.835034 40.8278852,97.1479592 C38.0990573,93.1972789 36.3935398,88.5595238 36.0524364,83.5782313 L36.0524364,82.7193878 L68.798371,59.8741497 L53.2781624,59.8741497 L40.4867817,68.8061224 L38.269609,68.2908163 L38.6107125,66.2295918 L49.526024,58.6717687 L47.8205066,57.4693878 C45.0916787,55.579932 42.7039543,53.1751701 40.8278852,50.5986395 C36.7346433,44.5867347 35.1996777,37.372449 36.3935398,30.329932 C37.7579538,23.1156463 41.6806439,16.9319728 47.6499549,12.8095238 C48.3321618,12.2942177 49.0143688,11.9506803 49.6965758,11.4353741 L50.208231,11.0918367 C50.890438,10.7482993 51.4020932,10.5765306 51.9137484,10.2329932 L52.7665072,9.88945578 C53.2781624,9.71768707 53.7898176,9.54591837 54.4720246,9.20238095 L55.1542316,9.03061224 C55.8364385,8.85884354 56.5186455,8.68707483 57.2008525,8.51530612 C57.3714042,8.51530612 57.7125077,8.34353741 57.8830594,8.34353741 L58.2241629,8.34353741 C58.5652664,8.34353741 59.0769216,8.17176871 59.4180251,8.17176871 C59.7591286,8.17176871 60.2707838,8 60.6118873,8 C60.9529908,8 61.2940943,8 61.8057495,8 L62.146853,8 C62.3174048,8 62.4879565,8 62.82906,8 L62.82906,8 Z M86.706304,32.5629252 L86.5357522,31.7040816 C86.024097,28.0969388 84.6596831,24.4897959 82.6130621,21.5697279 C78.1787168,15.042517 70.8449919,11.2636054 62.82906,11.2636054 C62.4879565,11.2636054 62.3174048,11.2636054 61.9763013,11.2636054 L61.6351978,11.2636054 C61.2940943,11.2636054 60.9529908,11.2636054 60.6118873,11.2636054 C60.2707838,11.2636054 59.9296804,11.2636054 59.5885769,11.4353741 C59.2474734,11.4353741 58.9063699,11.6071429 58.3947147,11.6071429 C58.3947147,11.6071429 57.7125077,11.7789116 57.541956,11.7789116 C56.859749,11.9506803 56.3480938,12.122449 55.6658868,12.2942177 L55.3247833,12.4659864 C54.6425763,12.6377551 54.1309211,12.8095238 53.6192659,13.1530612 L53.1076106,13.3248299 C52.4254037,13.6683673 52.0843002,13.8401361 51.572645,14.0119048 L50.890438,14.3554422 C50.208231,14.6989796 49.6965758,15.042517 49.0143688,15.5578231 C38.0990573,23.1156463 35.5407811,38.2312925 43.0450578,49.0527211 C45.2622305,51.9727891 48.1616101,54.5493197 51.4020932,56.2670068 L52.2548495,56.7823129 L86.706304,32.5629252 Z M62.9996117,105.908163 C67.9456123,105.908163 72.5505093,104.362245 76.6437511,101.613946 C81.9308552,98.0068027 85.34189,92.5102041 86.5357522,86.1547619 C87.7296144,79.7993197 86.3652005,73.4438776 82.6130621,68.1190476 C80.5664412,65.0272109 77.6670616,62.622449 74.5971302,60.7329932 L73.7443715,60.2176871 L39.1223677,84.2653061 L39.2929195,85.1241497 C39.8045747,88.7312925 41.1689886,92.3384354 43.2156096,95.2585034 C43.7272648,96.1173469 44.23892,96.8044218 44.921127,97.4914966 C45.0916787,97.6632653 45.4327822,98.1785714 45.4327822,98.1785714 C45.9444374,98.6938776 46.2855409,99.037415 46.7971962,99.5527211 C46.9677479,99.7244898 47.3088514,99.8962585 47.4794031,100.068027 C47.9910584,100.411565 48.5027136,100.926871 49.0143688,101.270408 L49.6965758,101.957483 C50.3787828,102.472789 51.0609897,102.816327 51.7431967,103.159864 C52.7665072,103.67517 53.6192659,104.018707 54.4720246,104.362245 C55.3247833,104.705782 56.177542,104.877551 57.0303007,105.221088 L57.3714042,105.221088 C58.2241629,105.392857 58.9063699,105.564626 59.7591286,105.736395 L60.1002321,105.736395 C60.9529908,105.908163 61.8057495,105.908163 62.9996117,105.908163 C62.82906,105.908163 62.9996117,105.908163 62.9996117,105.908163 Z" id="Shape"></path>
            </g>
        </g>
    </g>
</svg>